<?xml version="1.0" encoding="utf-8"?>
<!-- Generator: Adobe Illustrator 13.0.2, SVG Export Plug-In . SVG Version: 6.00 Build 14948)  -->
<!DOCTYPE svg PUBLIC "-//W3C//DTD SVG 1.1//EN" "http://www.w3.org/Graphics/SVG/1.1/DTD/svg11.dtd">
<svg version="1.1" id="Layer_1" xmlns="http://www.w3.org/2000/svg" xmlns:xlink="http://www.w3.org/1999/xlink" x="0px" y="0px"
	 width="792px" height="612px" viewBox="0 0 792 612" enable-background="new 0 0 792 612" xml:space="preserve">
<g>
	<path fill="#050400" d="M147.65,344.206v-76.308h26.709c15.151,0,27.47,5.229,27.47,19.296c0,10.247-8.726,16.891-19.296,17.556
		v0.209c12.214,0.437,22.46,6.216,22.46,18.64c0,14.391-12.1,20.606-28.012,20.606H147.65z M158.334,301.803h14.172
		c10.142,0,18.203-3.156,18.203-13.954c0-9.591-6.977-13.63-17.984-13.63h-14.391V301.803z M158.334,308.238v29.646h16.568
		c11.226,0,18.972-4.144,18.972-14.714c0-10.579-7.851-14.941-20.389-14.941h-15.151V308.238z"/>
	<path fill="#050400" d="M232.438,344.206h-10.684v-76.308h10.684V344.206z"/>
	<path fill="#050400" d="M275.147,274.333h-29.324v-6.435h69.332v6.435h-29.324v69.873h-10.684V274.333L275.147,274.333z"/>
	<path fill="#050400" d="M392.634,267.907h13.298v76.308h-10.684V278.81l-27.584,65.947h-3.707l-27.688-65.947v65.405h-7.632
		v-76.308h14.172l25.18,60.388L392.634,267.907z"/>
	<path fill="#050400" d="M468.355,320.443h-31.613l-10.028,23.763h-7.737l33.039-76.963h5.123l32.926,76.963h-11.559
		L468.355,320.443z M439.251,314.341h26.491l-13.299-31.396L439.251,314.341z"/>
	<path fill="#050400" d="M513.679,344.206h-10.684v-76.308h29.429c15.702,0,28.562,5.447,28.562,20.598
		c0,13.744-11.558,18.753-21.805,18.972v0.332c9.591,1.198,13.517,5.552,16.244,13.621l4.354,11.882
		c1.312,3.707,3.27,7.414,6.216,10.902h-11.995c-2.186-3.051-4.136-7.851-4.905-10.028l-4.581-12.318
		c-2.938-8.288-5.988-11.34-16.025-11.34h-14.811V344.206z M513.679,304.208h16.576c10.466,0,19.077-3.707,19.077-15.483
		c0-10.352-7.737-14.496-19.077-14.496h-16.576V304.208z"/>
	<path fill="#050400" d="M600.636,306.49l-9.915,9.372v28.345h-10.684v-76.308h10.684v39.457l40.55-39.457h10.246l-33.354,31.5
		l36.187,44.807h-13.525L600.636,306.49z"/>
</g>
</svg>
