<?xml version="1.0" encoding="utf-8"?>
<!-- Generator: Adobe Illustrator 23.0.2, SVG Export Plug-In . SVG Version: 6.00 Build 0)  -->
<svg version="1.1" id="Layer_1" xmlns="http://www.w3.org/2000/svg" xmlns:xlink="http://www.w3.org/1999/xlink" x="0px" y="0px"
	 viewBox="0 0 700 700" style="enable-background:new 0 0 700 700;" xml:space="preserve">
<style type="text/css">
	.st0{fill:#050400;}
</style>
<g>
	<path class="st0" d="M65.94,393.7v-87.28h30.55c17.33,0,31.42,5.98,31.42,22.07c0,11.72-9.98,19.32-22.07,20.08v0.24
		c13.97,0.5,25.69,7.11,25.69,21.32c0,16.46-13.84,23.57-32.04,23.57H65.94z M78.16,345.2h16.21c11.6,0,20.82-3.61,20.82-15.96
		c0-10.97-7.98-15.59-20.57-15.59H78.16V345.2z M78.16,352.56v33.91h18.95c12.84,0,21.7-4.74,21.7-16.83
		c0-12.1-8.98-17.09-23.32-17.09H78.16z"/>
	<path class="st0" d="M162.92,393.7h-12.22v-87.28h12.22V393.7z"/>
	<path class="st0" d="M211.77,313.78h-33.54v-7.36h79.3v7.36h-33.54v79.92h-12.22V313.78z"/>
	<path class="st0" d="M346.15,306.43h15.21v87.28h-12.22v-74.81l-31.55,75.43h-4.24l-31.67-75.43v74.81h-8.73v-87.28h16.21
		l28.8,69.07L346.15,306.43z"/>
	<path class="st0" d="M432.76,366.52h-36.16l-11.47,27.18h-8.85l37.79-88.03h5.86l37.66,88.03h-13.22L432.76,366.52z M399.47,359.54
		h30.3l-15.21-35.91L399.47,359.54z"/>
	<path class="st0" d="M484.6,393.7h-12.22v-87.28h33.66c17.96,0,32.67,6.23,32.67,23.56c0,15.72-13.22,21.45-24.94,21.7v0.38
		c10.97,1.37,15.46,6.35,18.58,15.58l4.98,13.59c1.5,4.24,3.74,8.48,7.11,12.47h-13.72c-2.5-3.49-4.73-8.98-5.61-11.47l-5.24-14.09
		c-3.36-9.48-6.85-12.97-18.33-12.97H484.6V393.7z M484.6,347.95h18.96c11.97,0,21.82-4.24,21.82-17.71
		c0-11.84-8.85-16.58-21.82-16.58H484.6V347.95z"/>
	<path class="st0" d="M584.06,350.56l-11.34,10.72v32.42h-12.22v-87.28h12.22v45.13l46.38-45.13h11.72l-38.15,36.03l41.39,51.25
		h-15.47L584.06,350.56z"/>
</g>
</svg>
