<?xml version="1.0" encoding="UTF-8" standalone="no"?>
<!DOCTYPE svg PUBLIC "-//W3C//DTD SVG 1.1//EN" "http://www.w3.org/Graphics/SVG/1.1/DTD/svg11.dtd">
<svg width="100%" height="100%" viewBox="0 0 500 148" version="1.1" xmlns="http://www.w3.org/2000/svg" xmlns:xlink="http://www.w3.org/1999/xlink" xml:space="preserve" xmlns:serif="http://www.serif.com/" style="fill-rule:evenodd;clip-rule:evenodd;stroke-linejoin:round;stroke-miterlimit:1.41421;">
    <g transform="matrix(1.90832,0,0,0.954939,-48.2988,-20.5279)">
        <rect x="25.31" y="21.497" width="262.011" height="154.984"/>
    </g>
    <g transform="matrix(0.233011,0,0,0.243333,120.563,74)">
        <g transform="matrix(1,0,0,1,-320,-300)">
            <g transform="matrix(0.717,0,0,-0.717,-9.82,604.725)">
                <path d="M36.426,281.017C36.426,392.952 108.394,488.123 208.57,522.768C205.745,537.984 204.269,553.673 204.269,569.705C204.269,710.91 318.795,825.436 460,825.436C601.206,825.436 715.731,710.91 715.731,569.705C715.731,553.673 714.255,537.984 711.43,522.768C811.606,488.123 883.574,392.952 883.574,281.017C883.574,139.812 769.049,25.286 627.844,25.286C563.622,25.286 504.92,48.975 460,88.091C415.08,48.975 356.378,25.286 292.156,25.286C150.951,25.286 36.426,139.811 36.426,281.017ZM503.789,137.436C537.047,108.678 580.407,91.286 627.844,91.286C732.659,91.286 817.574,176.2 817.574,281.017C817.574,363.67 764.772,433.949 691.047,459.974C661.762,398.441 608.618,350.444 543.586,327.954C546.411,312.738 547.887,297.049 547.887,281.017C547.887,227.8 531.62,178.372 503.789,137.436ZM102.425,281.017C102.425,176.201 187.341,91.286 292.156,91.286C339.593,91.286 382.953,108.678 416.211,137.436C388.38,178.372 372.113,227.8 372.113,281.017C372.113,297.049 373.589,312.738 376.414,327.954C311.382,350.444 258.238,398.441 228.953,459.974C155.228,433.949 102.425,363.67 102.425,281.017ZM438.113,281.017C438.113,249.022 446.025,218.881 460,192.444C473.975,218.881 481.887,249.022 481.887,281.017C481.887,292.5 480.868,303.744 478.915,314.663C472.67,314.206 466.362,313.974 460,313.974C453.638,313.974 447.33,314.206 441.085,314.663C439.132,303.744 438.113,292.5 438.113,281.017ZM298.129,470.656C320.691,433.851 355.454,405.342 396.797,390.748C402.418,402.558 408.917,413.869 416.211,424.597C384.354,452.144 343.228,469.263 298.129,470.656ZM503.789,424.597C511.083,413.869 517.582,402.558 523.203,390.748C564.546,405.342 599.309,433.851 621.871,470.656C576.772,469.263 535.646,452.144 503.789,424.597ZM270.269,569.705C270.269,558.222 271.288,546.978 273.241,536.059C279.486,536.516 285.794,536.748 292.156,536.748C356.378,536.748 415.08,513.058 460,473.943C504.92,513.058 563.622,536.748 627.844,536.748C634.206,536.748 640.514,536.516 646.759,536.059C648.712,546.978 649.731,558.222 649.731,569.705C649.731,674.522 564.817,759.436 460,759.436C355.183,759.436 270.269,674.521 270.269,569.705Z" style="fill-rule:nonzero;"/>
                <path d="M444.748,330.953C449.791,330.635 454.877,330.474 460,330.474C571.21,330.474 644.269,401.792 675.071,464.828C663.99,467.665 652.518,469.526 640.752,470.316C613.458,420.776 551.838,363.474 460,363.474C458.971,363.474 457.944,363.482 456.919,363.497C451.913,353.138 447.822,342.256 444.748,330.953ZM472.155,99.384C514,63.48 568.392,41.786 627.844,41.786C759.951,41.786 867.074,148.909 867.074,281.017C867.074,413.124 759.951,520.248 627.844,520.248C568.392,520.248 514,498.553 472.155,462.65C479.967,454.907 487.283,446.664 494.05,437.973C530.063,468.7 576.784,487.248 627.844,487.248C741.757,487.248 834.074,394.93 834.074,281.017C834.074,167.103 741.757,74.786 627.844,74.786C576.784,74.786 530.063,93.334 494.05,124.06C487.283,115.369 479.967,107.126 472.155,99.384ZM388.613,281.017C388.613,232.188 403.247,186.773 428.369,148.918C436.466,157.265 443.801,166.355 450.264,176.075C432.061,206.816 421.613,242.695 421.613,281.017C421.613,319.339 432.061,355.217 450.264,385.958C443.801,395.678 436.465,404.768 428.369,413.115C403.247,375.261 388.613,329.845 388.613,281.017ZM220.769,569.705C220.769,448.394 305.562,370.602 379.98,344.189C382.714,354.944 386.13,365.427 390.178,375.589C326.476,398.501 253.769,465.466 253.769,569.705C253.769,683.619 346.086,775.936 460,775.936C573.914,775.936 666.231,683.619 666.231,569.705C666.231,557.64 665.195,545.817 663.208,534.321C674.229,532.796 685.026,530.568 695.551,527.684C697.969,541.327 699.231,555.369 699.231,569.705C699.231,701.813 592.108,808.936 460,808.936C327.892,808.936 220.769,701.813 220.769,569.705ZM276.904,519.769C279.978,508.466 284.069,497.584 289.075,487.225C290.1,487.24 291.127,487.248 292.156,487.248C370.032,487.248 437.815,444.102 472.908,380.406C484.674,381.196 496.146,383.057 507.227,385.894C468.356,465.444 386.647,520.248 292.156,520.248C287.033,520.248 281.947,520.087 276.904,519.769ZM52.926,281.017C52.926,148.909 160.049,41.786 292.156,41.786C424.264,41.786 531.387,148.909 531.387,281.017C531.387,295.353 530.125,309.395 527.707,323.038C517.182,320.154 506.385,317.926 495.364,316.401C497.351,304.905 498.387,293.082 498.387,281.017C498.387,167.103 406.07,74.786 292.156,74.786C178.243,74.786 85.926,167.103 85.926,281.017C85.926,370.422 142.792,446.524 222.335,475.132C218.286,485.295 214.87,495.778 212.136,506.533C119.371,473.608 52.926,385.061 52.926,281.017Z" style="fill:white;fill-rule:nonzero;"/>
            </g>
        </g>
    </g>
    <g transform="matrix(1.25592,0,0,1.45272,-60.8548,5.72083)">
        <text x="213.624px" y="40.533px" style="font-family:'Arial-BoldMT', 'Arial', sans-serif;font-weight:700;font-size:39.047px;fill:white;">Blockchain</text>
        <text x="222.328px" y="80.858px" style="font-family:'Arial-BoldMT', 'Arial', sans-serif;font-weight:700;font-size:39.047px;fill:white;">Commons</text>
    </g>
</svg>
