<?xml version="1.0" encoding="UTF-8" standalone="no"?>
<!DOCTYPE svg PUBLIC "-//W3C//DTD SVG 1.1//EN" "http://www.w3.org/Graphics/SVG/1.1/DTD/svg11.dtd">
<svg width="100%" height="100%" viewBox="0 0 500 148" version="1.1" xmlns="http://www.w3.org/2000/svg" xmlns:xlink="http://www.w3.org/1999/xlink" xml:space="preserve" xmlns:serif="http://www.serif.com/" style="fill-rule:evenodd;clip-rule:evenodd;stroke-linejoin:round;stroke-miterlimit:1.41421;">
    <g transform="matrix(0.167069,0,0,-0.17447,43.7113,148.15)">
        <path d="M444.748,330.953C449.791,330.635 454.877,330.474 460,330.474C571.21,330.474 644.269,401.792 675.071,464.828C663.99,467.665 652.518,469.526 640.752,470.316C613.458,420.776 551.838,363.474 460,363.474C458.971,363.474 457.944,363.482 456.919,363.497C451.913,353.138 447.822,342.256 444.748,330.953ZM472.155,99.384C514,63.48 568.392,41.786 627.844,41.786C759.951,41.786 867.074,148.909 867.074,281.017C867.074,413.124 759.951,520.248 627.844,520.248C568.392,520.248 514,498.553 472.155,462.65C479.967,454.907 487.283,446.664 494.05,437.973C530.063,468.7 576.784,487.248 627.844,487.248C741.757,487.248 834.074,394.93 834.074,281.017C834.074,167.103 741.757,74.786 627.844,74.786C576.784,74.786 530.063,93.334 494.05,124.06C487.283,115.369 479.967,107.126 472.155,99.384ZM388.613,281.017C388.613,232.188 403.247,186.773 428.369,148.918C436.466,157.265 443.801,166.355 450.264,176.075C432.061,206.816 421.613,242.695 421.613,281.017C421.613,319.339 432.061,355.217 450.264,385.958C443.801,395.678 436.465,404.768 428.369,413.115C403.247,375.261 388.613,329.845 388.613,281.017ZM220.769,569.705C220.769,448.394 305.562,370.602 379.98,344.189C382.714,354.944 386.13,365.427 390.178,375.589C326.476,398.501 253.769,465.466 253.769,569.705C253.769,683.619 346.086,775.936 460,775.936C573.914,775.936 666.231,683.619 666.231,569.705C666.231,557.64 665.195,545.817 663.208,534.321C674.229,532.796 685.026,530.568 695.551,527.684C697.969,541.327 699.231,555.369 699.231,569.705C699.231,701.813 592.108,808.936 460,808.936C327.892,808.936 220.769,701.813 220.769,569.705ZM276.904,519.769C279.978,508.466 284.069,497.584 289.075,487.225C290.1,487.24 291.127,487.248 292.156,487.248C370.032,487.248 437.815,444.102 472.908,380.406C484.674,381.196 496.146,383.057 507.227,385.894C468.356,465.444 386.647,520.248 292.156,520.248C287.033,520.248 281.947,520.087 276.904,519.769ZM52.926,281.017C52.926,148.909 160.049,41.786 292.156,41.786C424.264,41.786 531.387,148.909 531.387,281.017C531.387,295.353 530.125,309.395 527.707,323.038C517.182,320.154 506.385,317.926 495.364,316.401C497.351,304.905 498.387,293.082 498.387,281.017C498.387,167.103 406.07,74.786 292.156,74.786C178.243,74.786 85.926,167.103 85.926,281.017C85.926,370.422 142.792,446.524 222.335,475.132C218.286,485.295 214.87,495.778 212.136,506.533C119.371,473.608 52.926,385.061 52.926,281.017Z" style="fill-rule:nonzero;stroke:white;stroke-width:5.85px;"/>
    </g>
    <g transform="matrix(1.25592,0,0,1.45272,-60.8548,5.72083)">
        <g transform="matrix(1,0,0,1,213.624,40.533)">
            <text x="0px" y="0px" style="font-family:'Arial-BoldMT', 'Arial', sans-serif;font-weight:700;font-size:39.047px;stroke:white;stroke-width:0.74px;">Blockchain</text>
        </g>
        <g transform="matrix(1,0,0,1,222.328,80.858)">
            <text x="0px" y="0px" style="font-family:'Arial-BoldMT', 'Arial', sans-serif;font-weight:700;font-size:39.047px;stroke:white;stroke-width:0.74px;">Commons</text>
        </g>
    </g>
</svg>
