<?xml version="1.0" standalone="no"?>
<!DOCTYPE svg PUBLIC "-//W3C//DTD SVG 1.0//EN" "http://www.w3.org/TR/2001/REC-SVG-20010904/DTD/svg10.dtd">
<svg width="640" height="600" viewBox="0 0 640 600" xmlns="http://www.w3.org/2000/svg">
<title>Borromean Rings (minimal central overlap).</title>
<g transform="translate(320,300) scale(0.717,-0.717) translate(-460,-425)">
<path d="M36.4255,281.017
C36.4255,392.952,108.394,488.123,208.57,522.768
C205.745,537.984,204.269,553.673,204.269,569.705
C204.269,710.91,318.795,825.436,460,825.436
C601.206,825.436,715.731,710.91,715.731,569.705
C715.731,553.673,714.255,537.984,711.43,522.768
C811.606,488.123,883.574,392.952,883.574,281.017
C883.574,139.812,769.049,25.2856,627.844,25.2856
C563.622,25.2856,504.92,48.9754,460,88.0907
C415.08,48.9754,356.378,25.2856,292.156,25.2856
C150.951,25.2856,36.4255,139.811,36.4255,281.017Z
M503.789,137.436
C537.047,108.678,580.407,91.2856,627.844,91.2856
C732.659,91.2856,817.574,176.2,817.574,281.017
C817.574,363.67,764.772,433.949,691.047,459.974
C661.762,398.441,608.618,350.444,543.586,327.954
C546.411,312.738,547.887,297.049,547.887,281.017
C547.887,227.8,531.62,178.372,503.789,137.436Z
M102.425,281.017
C102.425,176.201,187.341,91.2856,292.156,91.2856
C339.593,91.2856,382.953,108.678,416.211,137.436
C388.38,178.372,372.113,227.8,372.113,281.017
C372.113,297.049,373.589,312.738,376.414,327.954
C311.382,350.444,258.238,398.441,228.953,459.974
C155.228,433.949,102.425,363.67,102.425,281.017Z
M438.113,281.017
C438.113,249.022,446.025,218.881,460,192.444
C473.975,218.881,481.887,249.022,481.887,281.017
C481.887,292.5,480.868,303.744,478.915,314.663
C472.67,314.206,466.362,313.974,460,313.974
C453.638,313.974,447.33,314.206,441.085,314.663
C439.132,303.744,438.113,292.5,438.113,281.017Z
M298.129,470.656
C320.691,433.851,355.454,405.342,396.797,390.748
C402.418,402.558,408.917,413.869,416.211,424.597
C384.354,452.144,343.228,469.263,298.129,470.656Z
M503.789,424.597
C511.083,413.869,517.582,402.558,523.203,390.748
C564.546,405.342,599.309,433.851,621.871,470.656
C576.772,469.263,535.646,452.144,503.789,424.597Z
M270.269,569.705
C270.269,558.222,271.288,546.978,273.241,536.059
C279.486,536.516,285.794,536.748,292.156,536.748
C356.378,536.748,415.08,513.058,460,473.943
C504.92,513.058,563.622,536.748,627.844,536.748
C634.206,536.748,640.514,536.516,646.759,536.059
C648.712,546.978,649.731,558.222,649.731,569.705
C649.731,674.522,564.817,759.436,460,759.436
C355.183,759.436,270.269,674.521,270.269,569.705Z"/>
<path fill="#ffffff" d="M444.748,330.953
C449.791,330.635,454.877,330.474,460,330.474
C571.21,330.474,644.269,401.792,675.071,464.828
C663.99,467.665,652.518,469.526,640.752,470.316
C613.458,420.776,551.838,363.474,460,363.474
C458.971,363.474,457.944,363.482,456.919,363.497
C451.913,353.138,447.822,342.256,444.748,330.953Z
M472.155,99.3839
C514,63.4804,568.392,41.7856,627.844,41.7856
C759.951,41.7856,867.074,148.909,867.074,281.017
C867.074,413.124,759.951,520.248,627.844,520.248
C568.392,520.248,514,498.553,472.155,462.65
C479.967,454.907,487.283,446.664,494.05,437.973
C530.063,468.7,576.784,487.248,627.844,487.248
C741.757,487.248,834.074,394.93,834.074,281.017
C834.074,167.103,741.757,74.7856,627.844,74.7856
C576.784,74.7856,530.063,93.3335,494.05,124.06
C487.283,115.369,479.967,107.126,472.155,99.3839Z
M388.613,281.017
C388.613,232.188,403.247,186.773,428.369,148.918
C436.466,157.265,443.801,166.355,450.264,176.075
C432.061,206.816,421.613,242.695,421.613,281.017
C421.613,319.339,432.061,355.217,450.264,385.958
C443.801,395.678,436.465,404.768,428.369,413.115
C403.247,375.261,388.613,329.845,388.613,281.017Z
M220.769,569.705
C220.769,448.394,305.562,370.602,379.98,344.189
C382.714,354.944,386.13,365.427,390.178,375.589
C326.476,398.501,253.769,465.466,253.769,569.705
C253.769,683.619,346.086,775.936,460,775.936
C573.914,775.936,666.231,683.619,666.231,569.705
C666.231,557.64,665.195,545.817,663.208,534.321
C674.229,532.796,685.026,530.568,695.551,527.684
C697.969,541.327,699.231,555.369,699.231,569.705
C699.231,701.813,592.108,808.936,460,808.936
C327.892,808.936,220.769,701.813,220.769,569.705Z
M276.904,519.769
C279.978,508.466,284.069,497.584,289.075,487.225
C290.1,487.24,291.127,487.248,292.156,487.248
C370.032,487.248,437.815,444.102,472.908,380.406
C484.674,381.196,496.146,383.057,507.227,385.894
C468.356,465.444,386.647,520.248,292.156,520.248
C287.033,520.248,281.947,520.087,276.904,519.769Z
M52.9255,281.017
C52.9255,148.909,160.049,41.7856,292.156,41.7856
C424.264,41.7856,531.387,148.909,531.387,281.017
C531.387,295.353,530.125,309.395,527.707,323.038
C517.182,320.154,506.385,317.926,495.364,316.401
C497.351,304.905,498.387,293.082,498.387,281.017
C498.387,167.103,406.07,74.7856,292.156,74.7856
C178.243,74.7856,85.9255,167.103,85.9255,281.017
C85.9255,370.422,142.792,446.524,222.335,475.132
C218.286,485.295,214.87,495.778,212.136,506.533
C119.371,473.608,52.9255,385.061,52.9255,281.017Z"/></g></svg>
