<?xml version="1.0" encoding="UTF-8" standalone="no"?>
<!DOCTYPE svg PUBLIC "-//W3C//DTD SVG 1.1//EN" "http://www.w3.org/Graphics/SVG/1.1/DTD/svg11.dtd">
<svg width="100%" height="100%" viewBox="0 0 1010 967" version="1.1" xmlns="http://www.w3.org/2000/svg" xmlns:xlink="http://www.w3.org/1999/xlink" xml:space="preserve" xmlns:serif="http://www.serif.com/" style="fill-rule:evenodd;clip-rule:evenodd;">
    <g transform="matrix(1,0,0,1,-457.357,-58.8192)">
        <clipPath id="_clip1">
            <path d="M1106.51,223.682L1260.7,334.617L1241.72,360.999L1087.53,250.064L1106.51,223.682Z" clip-rule="nonzero"/>
        </clipPath>
        <g clip-path="url(#_clip1)">
            <g transform="matrix(0.81174,0.584019,-0.584019,0.81174,0,0)">
                <g transform="matrix(19,0,0,19,1213.04,-441.273)">
                </g>
                <text x="1033.59px" y="-441.273px" style="font-family:'Helvetica-Bold', 'Helvetica';font-weight:700;font-size:19px;fill:rgb(146,146,146);">inﬂuences adoption</text>
            </g>
        </g>
    </g>
    <g transform="matrix(0.812084,-0.583541,0.583541,0.812084,-457.357,-58.8192)">
        <clipPath id="_clip2">
            <path d="M320.593,652.604L539.072,652.604L539.072,685.104L320.593,685.104L320.593,652.604Z" clip-rule="nonzero"/>
        </clipPath>
        <g clip-path="url(#_clip2)">
            <g transform="matrix(19,0,0,19,533.32,675.984)">
            </g>
            <text x="325.343px" y="675.984px" style="font-family:'Helvetica-Bold', 'Helvetica';font-weight:700;font-size:19px;fill:rgb(146,146,146);">supports sustainability</text>
        </g>
    </g>
    <g transform="matrix(0.317863,-0.948137,0.948137,0.317863,-457.357,-58.8192)">
        <clipPath id="_clip3">
            <path d="M-338.578,1432.17L-144.35,1432.17L-144.35,1464.67L-338.579,1464.67L-338.578,1432.17Z" clip-rule="nonzero"/>
        </clipPath>
        <g clip-path="url(#_clip3)">
            <g transform="matrix(19,0,0,19,-150.098,1455.55)">
            </g>
            <text x="-333.828px" y="1455.55px" style="font-family:'Helvetica-Bold', 'Helvetica';font-weight:700;font-size:19px;fill:rgb(146,146,146);">advocates for policy</text>
        </g>
    </g>
    <g transform="matrix(0.317305,0.948324,-0.948324,0.317305,-457.357,-58.8192)">
        <clipPath id="_clip4">
            <path d="M773.775,-408.681L945.803,-408.681L945.803,-376.181L773.775,-376.181L773.775,-408.681Z" clip-rule="nonzero"/>
        </clipPath>
        <g clip-path="url(#_clip4)">
            <g transform="matrix(19,0,0,19,940.052,-385.301)">
            </g>
            <text x="778.525px" y="-385.301px" style="font-family:'Helvetica-Bold', 'Helvetica';font-weight:700;font-size:19px;fill:rgb(146,146,146);">funds compliance</text>
        </g>
    </g>
    <g transform="matrix(1,0,0,1,-457.357,-58.8192)">
        <g transform="matrix(19,0,0,19,1047.11,913.179)">
        </g>
        <text x="854.932px" y="913.179px" style="font-family:'Helvetica-Bold', 'Helvetica';font-weight:700;font-size:19px;fill:rgb(146,146,146);">deﬁnes requirements</text>
    </g>
    <g transform="matrix(0,1,-1,0,-457.357,-58.8192)">
        <g transform="matrix(19,0,0,19,429.127,-962.825)">
        </g>
        <text x="271.82px" y="-962.825px" style="font-family:'Helvetica-Bold', 'Helvetica';font-weight:700;font-size:19px;fill:rgb(146,146,146);">drives innovation</text>
    </g>
    <g transform="matrix(0.970293,-0.241933,0.241933,0.970293,-457.357,-58.8192)">
        <clipPath id="_clip5">
            <path d="M913.699,735.155L1111.11,735.155L1111.11,767.655L913.699,767.655L913.699,735.155Z" clip-rule="nonzero"/>
        </clipPath>
        <g clip-path="url(#_clip5)">
            <g transform="matrix(19,0,0,19,1105.36,758.535)">
            </g>
            <text x="918.449px" y="758.535px" style="font-family:'Helvetica-Bold', 'Helvetica';font-weight:700;font-size:19px;fill:rgb(146,146,146);">shapes expectations</text>
        </g>
    </g>
    <g transform="matrix(0.970296,0.241922,-0.241922,0.970296,-457.357,-58.8192)">
        <clipPath id="_clip6">
            <path d="M777.225,271.263L935.532,271.263L935.532,303.763L777.225,303.763L777.225,271.263Z" clip-rule="nonzero"/>
        </clipPath>
        <g clip-path="url(#_clip6)">
            <g transform="matrix(19,0,0,19,929.78,294.643)">
            </g>
            <text x="781.975px" y="294.643px" style="font-family:'Helvetica-Bold', 'Helvetica';font-weight:700;font-size:19px;fill:rgb(146,146,146);">guides priorities</text>
        </g>
    </g>
    <g transform="matrix(0.56345,0.82615,-0.82615,0.56345,-457.357,-58.8192)">
        <clipPath id="_clip7">
            <path d="M1156.32,-511.24L1296.67,-511.24L1296.67,-478.74L1156.32,-478.74L1156.32,-511.24Z" clip-rule="nonzero"/>
        </clipPath>
        <g clip-path="url(#_clip7)">
            <g transform="matrix(19,0,0,19,1290.92,-487.86)">
            </g>
            <text x="1161.07px" y="-487.86px" style="font-family:'Helvetica-Bold', 'Helvetica';font-weight:700;font-size:19px;fill:rgb(146,146,146);">informs policy</text>
        </g>
    </g>
    <g transform="matrix(0.563526,-0.826098,0.826098,0.563526,-457.357,-58.8192)">
        <clipPath id="_clip8">
            <path d="M-241.703,1069.98L-50.684,1069.98L-50.684,1102.48L-241.703,1102.48L-241.703,1069.98Z" clip-rule="nonzero"/>
        </clipPath>
        <g clip-path="url(#_clip8)">
            <g transform="matrix(19,0,0,19,-56.4374,1093.36)">
            </g>
            <text x="-236.953px" y="1093.36px" style="font-family:'Helvetica-Bold', 'Helvetica';font-weight:700;font-size:19px;fill:rgb(146,146,146);">anchors obligations</text>
        </g>
    </g>
    <g transform="matrix(1,0,0,-1,71.9765,866.494)">
        <path d="M425.666,770.037L830.499,475.909L675.866,0L175.466,0L20.834,475.909L425.666,770.037Z" style="fill:none;fill-rule:nonzero;stroke:rgb(213,213,213);stroke-width:5px;"/>
    </g>
    <g transform="matrix(0.971187,-0.238317,-0.238317,-0.971187,497.643,491.181)">
        <path d="M0,0L417.195,0" style="fill:none;fill-rule:nonzero;stroke:rgb(213,213,213);stroke-width:5px;"/>
    </g>
    <g transform="matrix(0.555482,0.831529,0.831529,-0.555482,497.643,491.181)">
        <path d="M0,0L451.977,0" style="fill:none;fill-rule:nonzero;stroke:rgb(213,213,213);stroke-width:5px;"/>
    </g>
    <g transform="matrix(-0.554139,0.832424,0.832424,0.554139,497.643,491.181)">
        <path d="M0,0L452.133,0" style="fill:none;fill-rule:nonzero;stroke:rgb(213,213,213);stroke-width:5px;"/>
    </g>
    <g transform="matrix(-0.971101,-0.23867,-0.23867,0.971101,497.898,491.165)">
        <path d="M0,0L416.447,0" style="fill:none;fill-rule:nonzero;stroke:rgb(213,213,213);stroke-width:5px;"/>
    </g>
    <g transform="matrix(0,-1,-1,0,497.643,491.244)">
        <path d="M0,0L395.019,0" style="fill:none;fill-rule:nonzero;stroke:rgb(213,213,213);stroke-width:5px;"/>
    </g>
    <g transform="matrix(1,0,0,1,-457.357,-58.8192)">
        <clipPath id="_clip9">
            <path d="M1025.71,88.109C1064.76,127.161 1064.76,190.478 1025.71,229.53C986.658,268.582 923.342,268.582 884.289,229.53C845.237,190.478 845.237,127.161 884.289,88.109C923.342,49.056 986.658,49.056 1025.71,88.109Z" clip-rule="nonzero"/>
        </clipPath>
        <g clip-path="url(#_clip9)">
            <g transform="matrix(1.42836,0,0,-1.42836,686.929,806)">
                <clipPath id="_clip10">
                    <path d="M237.183,502.6C264.524,475.259 264.524,430.931 237.183,403.59C209.842,376.249 165.514,376.249 138.173,403.59C110.832,430.931 110.832,475.259 138.173,502.6C165.514,529.941 209.842,529.941 237.183,502.6Z" clip-rule="nonzero"/>
                </clipPath>
                <g clip-path="url(#_clip10)">
                    <rect x="-480.923" y="-191.829" width="1344.2" height="756.114" style="fill:url(#_Radial11);"/>
                </g>
            </g>
        </g>
    </g>
    <g transform="matrix(1,0,0,1,-457.357,-58.8192)">
        <clipPath id="_clip12">
            <path d="M1437.26,376.937C1476.32,415.989 1476.32,479.306 1437.26,518.358C1398.21,557.411 1334.89,557.411 1295.84,518.358C1256.79,479.306 1256.79,415.989 1295.84,376.937C1334.89,337.884 1398.21,337.884 1437.26,376.937Z" clip-rule="nonzero"/>
        </clipPath>
        <g clip-path="url(#_clip12)">
            <g transform="matrix(1.42836,0,0,-1.42836,1182.17,892.779)">
                <clipPath id="_clip13">
                    <path d="M178.59,361.144C205.931,333.804 205.931,289.475 178.59,262.135C151.249,234.794 106.921,234.794 79.58,262.135C52.24,289.475 52.24,333.804 79.58,361.144C106.921,388.485 151.249,388.485 178.59,361.144Z" clip-rule="nonzero"/>
                </clipPath>
                <g clip-path="url(#_clip13)">
                    <rect x="-827.646" y="-131.074" width="1344.2" height="756.114" style="fill:url(#_Radial14);"/>
                </g>
            </g>
        </g>
    </g>
    <g transform="matrix(1,0,0,1,-457.357,-58.8192)">
        <clipPath id="_clip15">
            <path d="M1282.44,852.418C1321.49,891.47 1321.49,954.786 1282.44,993.839C1243.38,1032.89 1180.07,1032.89 1141.01,993.839C1101.96,954.786 1101.96,891.47 1141.01,852.418C1180.07,813.365 1243.38,813.365 1282.44,852.418Z" clip-rule="nonzero"/>
        </clipPath>
        <g clip-path="url(#_clip15)">
            <g transform="matrix(1.42836,0,0,-1.42836,1408.91,447.084)">
                <clipPath id="_clip16">
                    <path d="M-88.544,-283.776C-61.204,-311.117 -61.204,-355.445 -88.544,-382.786C-115.886,-410.127 -160.214,-410.127 -187.555,-382.786C-214.895,-355.445 -214.895,-311.117 -187.555,-283.776C-160.214,-256.436 -115.886,-256.436 -88.544,-283.776Z" clip-rule="nonzero"/>
                </clipPath>
                <g clip-path="url(#_clip16)">
                    <rect x="-986.385" y="-443.108" width="1344.2" height="756.114" style="fill:url(#_Radial17);"/>
                </g>
            </g>
        </g>
    </g>
    <g transform="matrix(1,0,0,1,-457.357,-58.8192)">
        <clipPath id="_clip18">
            <path d="M784.135,854.418C823.187,893.47 823.187,956.786 784.135,995.839C745.082,1034.89 681.766,1034.89 642.713,995.839C603.661,956.786 603.661,893.47 642.713,854.418C681.766,815.365 745.082,815.365 784.135,854.418Z" clip-rule="nonzero"/>
        </clipPath>
        <g clip-path="url(#_clip18)">
            <g transform="matrix(1.42836,0,0,-1.42836,1057.97,93.3177)">
                <clipPath id="_clip19">
                    <path d="M-191.715,-532.85C-164.374,-560.191 -164.374,-604.519 -191.715,-631.86C-219.055,-659.201 -263.384,-659.201 -290.724,-631.86C-318.065,-604.519 -318.065,-560.191 -290.724,-532.85C-263.384,-505.509 -219.055,-505.509 -191.715,-532.85Z" clip-rule="nonzero"/>
                </clipPath>
                <g clip-path="url(#_clip19)">
                    <rect x="-740.692" y="-690.782" width="1344.2" height="756.114" style="fill:url(#_Radial20);"/>
                </g>
            </g>
        </g>
    </g>
    <g transform="matrix(1,0,0,1,-457.357,-58.8192)">
        <clipPath id="_clip21">
            <path d="M628.068,378.937C667.121,417.989 667.121,481.306 628.068,520.358C589.016,559.411 525.699,559.411 486.647,520.358C447.594,481.306 447.594,417.989 486.647,378.937C525.699,339.884 589.016,339.884 628.068,378.937Z" clip-rule="nonzero"/>
        </clipPath>
        <g clip-path="url(#_clip21)">
            <g transform="matrix(1.42836,0,0,-1.42836,611.4,319.178)">
                <clipPath id="_clip22">
                    <path d="M11.67,-41.838C39.01,-69.179 39.01,-113.507 11.67,-140.848C-15.671,-168.189 -59.999,-168.189 -87.34,-140.848C-114.681,-113.507 -114.681,-69.179 -87.34,-41.838C-59.999,-14.497 -15.671,-14.497 11.67,-41.838Z" clip-rule="nonzero"/>
                </clipPath>
                <g clip-path="url(#_clip22)">
                    <rect x="-428.045" y="-532.656" width="1344.2" height="756.114" style="fill:url(#_Radial23);"/>
                </g>
            </g>
        </g>
    </g>
    <g transform="matrix(1,0,0,1,-457.357,-58.8192)">
        <clipPath id="_clip24">
            <path d="M955.509,436.786L1071.08,520.757L1026.94,656.624L884.079,656.624L839.933,520.757L955.509,436.786Z" clip-rule="nonzero"/>
        </clipPath>
        <g clip-path="url(#_clip24)">
            <g transform="matrix(1.73274,0,0,-1.73274,969.771,523.877)">
                <clipPath id="_clip25">
                    <path d="M-8.231,50.262L58.47,1.801L32.992,-76.611L-49.455,-76.611L-74.932,1.801L-8.231,50.262Z" clip-rule="nonzero"/>
                </clipPath>
                <g clip-path="url(#_clip25)">
                    <rect x="-559.675" y="-320.95" width="1108.07" height="623.29" style="fill:url(#_Radial26);"/>
                </g>
            </g>
        </g>
    </g>
    <g transform="matrix(1,0,0,1,-457.357,-58.8192)">
        <text x="883.032px" y="151.139px" style="font-family:'HelveticaNeue-Bold', 'Helvetica Neue';font-weight:700;font-size:32px;fill:white;">T<tspan x="899.032px 917.4px " y="151.139px 151.139px ">ec</tspan>hnical</text>
        <g transform="matrix(32,0,0,32,1044.7,190.139)">
        </g>
        <text x="865.304px" y="190.139px" style="font-family:'HelveticaNeue-Bold', 'Helvetica Neue';font-weight:700;font-size:32px;fill:white;">Capabilities</text>
    </g>
    <g transform="matrix(1,0,0,1,-457.357,-58.8192)">
        <text x="1306.42px" y="439.787px" style="font-family:'HelveticaNeue-Bold', 'Helvetica Neue';font-weight:700;font-size:32px;fill:white;">Cultural</text>
        <g transform="matrix(32,0,0,32,1410.1,478.787)">
        </g>
        <text x="1323px" y="478.787px" style="font-family:'HelveticaNeue-Bold', 'Helvetica Neue';font-weight:700;font-size:32px;fill:white;">Shifts</text>
    </g>
    <g transform="matrix(1,0,0,1,-457.357,-58.8192)">
        <text x="1150.77px" y="914.803px" style="font-family:'HelveticaNeue-Bold', 'Helvetica Neue';font-weight:700;font-size:32px;fill:white;">Political</text>
        <g transform="matrix(32,0,0,32,1239.21,953.803)">
        </g>
        <text x="1184.24px" y="953.803px" style="font-family:'HelveticaNeue-Bold', 'Helvetica Neue';font-weight:700;font-size:32px;fill:white;">Will</text>
    </g>
    <g transform="matrix(1,0,0,1,-457.357,-58.8192)">
        <text x="623.881px" y="917.619px" style="font-family:'HelveticaNeue-Bold', 'Helvetica Neue';font-weight:700;font-size:31px;fill:white;">Agr<tspan x="675.558px 693.352px " y="917.619px 917.619px ">ee</tspan>ments</text>
        <g transform="matrix(31,0,0,31,759.056,955.619)">
        </g>
        <text x="667.792px" y="955.619px" style="font-family:'HelveticaNeue-Bold', 'Helvetica Neue';font-weight:700;font-size:31px;fill:white;">&amp; Law</text>
    </g>
    <g transform="matrix(1,0,0,1,-457.357,-58.8192)">
        <text x="480.957px" y="441.732px" style="font-family:'HelveticaNeue-Bold', 'Helvetica Neue';font-weight:700;font-size:32px;fill:white;">Economic</text>
        <g transform="matrix(32,0,0,32,635.277,480.732)">
        </g>
        <text x="479.437px" y="480.732px" style="font-family:'HelveticaNeue-Bold', 'Helvetica Neue';font-weight:700;font-size:32px;fill:white;">Incentives</text>
    </g>
    <g transform="matrix(1,0,0,1,-457.357,-58.8192)">
        <text x="892.861px" y="528.087px" style="font-family:'HelveticaNeue-BoldItalic', 'Helvetica Neue';font-weight:700;font-style:italic;font-size:41px;">values</text>
        <text x="897.412px" y="573.207px" style="font-family:'HelveticaNeue', 'Helvetica Neue';font-size:41px;">inform</text>
        <g transform="matrix(41,0,0,41,1020.8,618.327)">
        </g>
        <text x="890.216px" y="618.327px" style="font-family:'HelveticaNeue-BoldItalic', 'Helvetica Neue';font-weight:700;font-style:italic;font-size:41px;">design</text>
    </g>
    <defs>
        <radialGradient id="_Radial11" cx="0" cy="0" r="1" gradientUnits="userSpaceOnUse" gradientTransform="matrix(70.7107,-70.7107,-70.7107,-70.7107,187.678,453.095)"><stop offset="0" style="stop-color:rgb(241,155,145);stop-opacity:1"/><stop offset="1" style="stop-color:rgb(237,110,87);stop-opacity:1"/></radialGradient>
        <radialGradient id="_Radial14" cx="0" cy="0" r="1" gradientUnits="userSpaceOnUse" gradientTransform="matrix(70.7107,-70.7107,-70.7107,-70.7107,129.085,311.639)"><stop offset="0" style="stop-color:rgb(212,251,121);stop-opacity:1"/><stop offset="1" style="stop-color:rgb(0,143,0);stop-opacity:1"/></radialGradient>
        <radialGradient id="_Radial17" cx="0" cy="0" r="1" gradientUnits="userSpaceOnUse" gradientTransform="matrix(70.7107,-70.7107,-70.7107,-70.7107,-138.05,-333.281)"><stop offset="0" style="stop-color:rgb(115,191,249);stop-opacity:1"/><stop offset="1" style="stop-color:rgb(71,159,248);stop-opacity:1"/></radialGradient>
        <radialGradient id="_Radial20" cx="0" cy="0" r="1" gradientUnits="userSpaceOnUse" gradientTransform="matrix(70.7107,-70.7107,-70.7107,-70.7107,-241.219,-582.355)"><stop offset="0" style="stop-color:rgb(240,146,196);stop-opacity:1"/><stop offset="1" style="stop-color:rgb(187,58,121);stop-opacity:1"/></radialGradient>
        <radialGradient id="_Radial23" cx="0" cy="0" r="1" gradientUnits="userSpaceOnUse" gradientTransform="matrix(70.7107,-70.7107,-70.7107,-70.7107,-37.8354,-91.3428)"><stop offset="0" style="stop-color:rgb(246,227,89);stop-opacity:1"/><stop offset="1" style="stop-color:rgb(239,189,64);stop-opacity:1"/></radialGradient>
        <radialGradient id="_Radial26" cx="0" cy="0" r="1" gradientUnits="userSpaceOnUse" gradientTransform="matrix(70.7107,-70.7107,-70.7107,-70.7107,-8.23118,-19.8718)"><stop offset="0" style="stop-color:rgb(152,250,234);stop-opacity:1"/><stop offset="1" style="stop-color:rgb(107,227,207);stop-opacity:1"/></radialGradient>
    </defs>
</svg>
